# xmcd
#
# Track frame offsets:
# 150
# 20430
# 40320
# 74325
#
# Disc length: 1233 seconds
#
# Revision: 0
# Processed by: cddbd v1.4PL0 Copyright (c) Steve Scherf et al.
# Submitted via: Audion 3.0.2 (http://www.panic.com/audion/)
#
DISCID=2f04cf04
DTITLE=Terence Trent D'Arby - Vibrator (Single #1)
DYEAR=1900
DGENRE=
TTITLE0=Vibrator (edit 1)
TTITLE1=Surrender (Brooklin Mix)
TTITLE2=Surrender (MK Mix)
TTITLE3=I Really Want You
EXTD=
EXTT0=
EXTT1=
EXTT2=
EXTT3=
PLAYORDER=
